<svg xmlns="http://www.w3.org/2000/svg" viewBox="0 0 751.6 174.6"><path fill="#fff" d="M207 7.5h14.4l33 43.5V7.5h15.4v70.6h-13.2l-34.2-44.8V78h-15.3V7.6zm73.2.1h53.2v13.8h-37.8v14.3h33.2v13.8h-33.2v14.8h38.3v13.8h-53.7V7.6zM365.5 22h-21.4V7.5h58.4V22H381v56.2h-15.5V22zM414 7.6h16.5l14.6 47.8 15.9-48h13.2l15.9 48 14.6-47.8h16.2l-24.1 71h-13.5l-15.9-46-16 46H438l-24-71zM526.6 43c0-20 15.8-36.5 37.6-36.5s37.3 16.2 37.3 36.3v.2c0 20-15.8 36.4-37.5 36.4a36.1 36.1 0 01-37.4-36.2zm58.7 0c0-12.1-8.8-22.2-21.3-22.2s-21.1 9.9-21.1 22v.2c0 12 8.8 22.1 21.3 22.1s21.1-9.8 21.1-22zm27.9-35.4h32.2c9 0 16 2.6 20.6 7.2 4 4 6 9.4 6 16.1v.2c0 11.4-6.1 18.5-15 21.8l17 25.3h-18l-15.2-22.5h-12.2V78h-15.5V7.6zM644.4 42c7.6 0 12-4 12-10v-.2c0-6.6-4.7-10-12.3-10h-15.4V42h15.7zm43.1-34.4H703v30.8l28.6-30.8h18.7l-28.7 30 30 40.5H733l-21.9-30-8.1 8.5V78h-15.5V7.6zM227 107.8h-20v-4h44.3v4h-20v53.5H227v-53.5zm24.5 11.6h4.5l12.7 36.8 12.6-37h3.2l12.6 37 12.7-36.8h4.3l-15.3 42.2h-3.5L283 125.7l-12.6 35.9H267l-15.4-42.2zm69.3 21v-.1c0-12.2 8.6-21.9 19.9-21.9 11.7 0 19.2 9.6 19.2 22l-.1 1.6h-34.7c.7 10.4 8.2 16.5 16.4 16.5 6.5 0 11-2.9 14.4-6.6l2.8 2.5a22 22 0 01-17.4 7.8c-11 0-20.5-8.7-20.5-21.8zm34.7-2c-.6-8.5-5.4-16.3-15-16.3-8.3 0-14.7 7-15.4 16.3h30.4zm16.1-19h4v7.8c2.8-4.9 7.5-8.7 15.1-8.7 10.6 0 16.8 7.2 16.8 17.2v25.6h-4v-24.9c0-8.6-5-14.3-13.4-14.3-8.2 0-14.5 6.3-14.5 15v24.2h-4v-41.9zm52.4 31.1v-27.4h-6v-3.7h6v-13.3h4.1v13.3h14.7v3.7H428v27c0 6 3.5 8.1 8.4 8.1 2 0 3.7-.4 6.1-1.4v3.7c-2.1 1-4.2 1.5-6.8 1.5-6.5 0-11.7-3.5-11.7-11.5zm63.4-31.1h4.4l-18.1 43.3c-3.7 8.8-8 12-14 12a18 18 0 01-8.2-1.9l1.4-3.5c2.2 1 4 1.6 7 1.6 4.4 0 7.3-2.6 10.4-9.9l-20-41.6h4.6l17.4 37.4 15.1-37.4zm13.9 13.3v-.1a28.9 28.9 0 1157.7-.2v.2a28.9 28.9 0 01-29 29.6 28.6 28.6 0 01-28.7-29.5zm53.3 0v-.1c0-14.2-10.3-25.9-24.5-25.9s-24.4 11.5-24.4 25.7v.2c0 14.2 10.3 25.8 24.5 25.8s24.4-11.5 24.4-25.7zm18-13.3h4v7.8c2.8-4.9 7.5-8.7 15.1-8.7 10.6 0 16.8 7.2 16.8 17.2v25.6h-4v-24.9c0-8.6-4.9-14.3-13.3-14.3-8.2 0-14.6 6.3-14.6 15v24.2h-4v-41.9zm47.4 21v-.1c0-12.2 8.5-21.9 19.9-21.9 11.7 0 19.2 9.6 19.2 22l-.1 1.6h-34.7c.7 10.4 8.2 16.5 16.4 16.5 6.5 0 10.9-2.9 14.3-6.6l2.8 2.5a22 22 0 01-17.3 7.8c-11 0-20.5-8.7-20.5-21.8zm34.7-2c-.6-8.5-5.4-16.3-15-16.3-8.3 0-14.7 7-15.4 16.3h30.4zM177.2 0h3v170h-3zM74.6 14.1v12.6H90v-3.9h22.3v12.3H81.1l-6.5 6.6v36.2h53V62.6H89.9V50.4h31.2l6.5-6.6V14.1l-6.5-6.6h-40zM0 7.5h14.3l33 43.4V7.5h15.2V78H49.3l-34-44.7V78H0V7.5zM0 89.9h154.9v15.3H0zm0 28.6h154.9v15.3H0zm0 28.7h154.9v15.3H0zM154 7.5h-14.3l-2.4 4.1-2.4 4.1h4.8v62.2h15.2V7.5z"/></svg>